# xmcd
# 
# Track frame offsets:
#     150
#     23673
#     39561
#     62203
#     77043
#     107528
#     122551
#     140566
#     161411
#     174721
#     192500
#     204988
#     225006
#     252803
# 
# Disc length: 3674
# 
# Revision: 3
# Processed by: cddbd v1.5.2PL0 Copyright (c) Steve Scherf et al.
# Submitted via: fre:ac v1.0.17
# 
DISCID=af0e580e
DTITLE=綾戸智恵 - PRAYER
DYEAR=2011
DGENRE=blues
TTITLE0=マザー
TTITLE1=アメイジング・グレイス
TTITLE2=明日に架ける橋
TTITLE3=踊り明かそう(マイ・フェア・レディより)
TTITLE4=ハレルヤ(バンドver.)
TTITLE5=ドゥ・アイ・エヴァー・クロス・ユア・マインド
TTITLE6=時には母のない子のように (黒人霊歌)
TTITLE7=夜汽車よジョージアへ
TTITLE8=イン・ザ・ゲットー
TTITLE9=レット・イット・ビー・ミー
TTITLE10=ピープル・ゲット・レディ
TTITLE11=オール55
TTITLE12=ヘイ・ジュード
TTITLE13=ハレルヤ(ソロver.)
EXTD=YEAR: 2011
EXTT0=
EXTT1=
EXTT2=
EXTT3=
EXTT4=
EXTT5=
EXTT6=
EXTT7=
EXTT8=
EXTT9=
EXTT10=
EXTT11=
EXTT12=
EXTT13=
PLAYORDER=
